<?xml version="1.0" encoding="UTF-8" standalone="no"?>
<!-- Created with Inkscape (http://www.inkscape.org/) -->

<svg
   xmlns:dc="http://purl.org/dc/elements/1.1/"
   xmlns:cc="http://creativecommons.org/ns#"
   xmlns:rdf="http://www.w3.org/1999/02/22-rdf-syntax-ns#"
   xmlns:svg="http://www.w3.org/2000/svg"
   xmlns="http://www.w3.org/2000/svg"
   xmlns:sodipodi="http://sodipodi.sourceforge.net/DTD/sodipodi-0.dtd"
   xmlns:inkscape="http://www.inkscape.org/namespaces/inkscape"
   width="411"
   height="330"
   viewBox="0 0 108.74375 87.312503"
   version="1.1"
   id="svg8"
   inkscape:version="0.92.4 (5da689c313, 2019-01-14)"
   sodipodi:docname="mt-initials.svg">
  <defs
     id="defs2" />
  <sodipodi:namedview
     id="base"
     pagecolor="#ffffff"
     bordercolor="#666666"
     borderopacity="1.0"
     inkscape:pageopacity="0.0"
     inkscape:pageshadow="2"
     inkscape:zoom="0.70710678"
     inkscape:cx="409.36456"
     inkscape:cy="128.92211"
     inkscape:document-units="mm"
     inkscape:current-layer="layer1"
     showgrid="false"
     units="px"
     inkscape:window-width="1920"
     inkscape:window-height="986"
     inkscape:window-x="2869"
     inkscape:window-y="-11"
     inkscape:window-maximized="1" />
  <metadata
     id="metadata5">
    <rdf:RDF>
      <cc:Work
         rdf:about="">
        <dc:format>image/svg+xml</dc:format>
        <dc:type
           rdf:resource="http://purl.org/dc/dcmitype/StillImage" />
        <dc:title></dc:title>
      </cc:Work>
    </rdf:RDF>
  </metadata>
  <g
     inkscape:label="Ebene 1"
     inkscape:groupmode="layer"
     id="layer1"
     transform="translate(0,-209.68749)">
    <path
       style="fill:#000000;stroke-width:1"
       d="m 30.885455,209.47872 c -2.884207,6.40376 -5.50767,12.23149 -11.334192,25.14937 -13.998611,31.03623 -15.842267,35.26393 -18.734258,42.9643 -0.233072,0.6206 -0.527267,1.12861 -0.653706,1.12861 -0.05317,0 -0.135464,-0.11366 -0.238744,-0.31988 v 18.80299 l 0.23151,5.2e-4 2.869591,0.004 17.565853,-39.53609 c 9.6612,-21.74471 17.793385,-40.23897 18.071764,-41.09826 0.477179,-1.47292 1.342364,-4.48167 1.759582,-6.11901 0.270651,-1.06214 0.570627,-0.94454 0.442868,0.17364 -0.251071,2.19727 -0.63808,9.15796 -0.789099,14.19138 -0.09026,3.0075 -0.165986,20.52533 -0.168981,38.92837 l -0.0047,33.4601 h 5.901965 5.901968 v -50.51577 -37.21427 z m 66.12929,0 v 42.50903 45.22101 h 5.902475 5.90197 v -45.22101 -42.50903 z"
       id="mt-initials"
       inkscape:connector-curvature="0"
       inkscape:label="mt-initials">
      <title
         id="title834">MT</title>
    </path>
  </g>
</svg>
