<svg xmlns="http://www.w3.org/2000/svg" viewBox="0 0 461.88 416.16"><defs><style>.cls-1,.cls-4,.cls-5{fill:#fff;}.cls-2{fill:none;}.cls-2,.cls-4,.cls-5{stroke:#010101;stroke-miterlimit:10;}.cls-2,.cls-4{stroke-width:3px;}.cls-3,.cls-6,.cls-7{fill:#010101;}.cls-6{font-size:39.38px;letter-spacing:-0.01em;}.cls-6,.cls-7{font-family:PrentonRPProMedium-Regular, Prenton RP Pro;}.cls-7{font-size:31.5px;letter-spacing:-0.01em;}</style></defs><g id="Layer_2" data-name="Layer 2"><g id="creator_brand_exchange"><g id="reciprocal_arrow_layer"><path class="cls-1" d="M335,360.38c-114.82,106.24-244.57,44-223.41-78.93"/><path class="cls-2" d="M335,360.38C225.15,462,101.64,409.49,109.65,297.11"/><polygon class="cls-3" points="91.35 297.42 127.55 301.67 111.57 281.45 91.35 297.42"/><path class="cls-1" d="M208.51,47.64c116-99,238.74-25.91,215.5,98.5"/><path class="cls-2" d="M208.51,47.64C319.57-47.14,436.79,15.81,426.2,130.51"/><polygon class="cls-3" points="444.43 130.41 408.29 125.73 424.01 146.14 444.43 130.41"/></g><g id="creator_mark_layer"><circle class="cls-4" cx="118.6" cy="146.24" r="117.1"/><circle class="cls-5" cx="118.6" cy="146.23" r="102.66"/><text class="cls-6" transform="translate(51.22 155.07)">Creator</text></g><g id="brand_mark_layer"><circle class="cls-4" cx="366.7" cy="248.8" r="93.68"/><circle class="cls-5" cx="366.7" cy="248.79" r="82.13"/><text class="cls-7" transform="translate(323.42 255.86)">Brand</text></g></g></g></svg>